<svg xmlns="http://www.w3.org/2000/svg" viewBox="0 0 1394 1000" role="img" aria-label="Maxilien">
<title>Maxilien</title>
<g transform="translate(0.000000,1000.000000) scale(0.100000,-0.100000)" fill="#000000" stroke="none"><path d="M7735 9159 c-1587 -4 -2185 -9 -2225 -17 -30 -7 -91 -16 -135 -22 -44 -5 -111 -16 -150 -25 -38 -8 -86 -15 -106 -15 -26 0 -50 -11 -89 -40 -50 -37 -58 -40 -120 -40 -50 0 -73 -5 -91 -19 -13 -10 -40 -21 -60 -25 -21 -4 -42 -13 -49 -21 -7 -8 -26 -15 -42 -15 -18 0 -38 -9 -53 -26 -20 -22 -31 -26 -59 -21 -29 5 -40 0 -72 -30 -21 -19 -52 -41 -69 -49 -40 -19 -94 -53 -137 -86 -19 -15 -48 -30 -64 -34 -16 -3 -33 -11 -39 -18 -5 -6 -30 -24 -55 -41 -25 -16 -66 -46 -91 -67 -26 -21 -50 -38 -54 -38 -6 0 -42 -29 -108 -88 -4 -4 -18 -18 -30 -32 -12 -14 -42 -38 -65 -54 -42 -29 -43 -29 -109 -17 -36 7 -104 25 -151 42 -47 16 -97 29 -111 29 -34 0 -156 36 -203 61 -26 13 -58 19 -105 19 -44 0 -79 6 -98 16 -31 17 -36 18 -200 53 -55 12 -111 28 -125 35 -14 8 -59 18 -100 22 -75 7 -209 39 -285 68 -22 8 -54 15 -70 16 -39 0 -170 36 -198 54 -12 8 -58 19 -102 25 -96 13 -190 36 -227 57 -15 8 -51 17 -80 20 -70 7 -209 44 -230 62 -9 7 -45 16 -80 19 -35 3 -81 14 -104 24 -22 10 -58 19 -79 19 -21 0 -57 9 -79 19 -23 10 -69 22 -103 25 -58 5 -63 4 -63 -14 0 -11 11 -27 25 -36 13 -9 27 -25 31 -37 12 -39 47 -76 76 -83 21 -4 34 -16 44 -39 7 -19 23 -36 33 -40 21 -6 81 -75 81 -92 0 -6 19 -28 43 -50 83 -79 213 -219 247 -267 19 -26 63 -77 98 -111 34 -35 62 -72 62 -82 0 -24 19 -43 41 -43 27 0 279 -258 279 -286 0 -17 9 -27 33 -38 32 -13 87 -68 87 -87 0 -12 147 -159 159 -159 5 0 14 -14 21 -31 8 -18 28 -38 51 -50 22 -11 39 -24 39 -30 0 -5 19 -29 42 -53 110 -112 168 -179 168 -193 0 -17 47 -66 72 -76 9 -3 25 -19 35 -34 10 -15 47 -57 82 -93 101 -102 116 -126 102 -156 -6 -14 -11 -45 -11 -70 0 -25 -7 -59 -16 -75 -8 -17 -17 -63 -20 -102 -2 -40 -11 -106 -20 -147 -22 -107 -30 -490 -39 -1893 -8 -1249 -6 -1307 36 -1447 11 -36 19 -81 19 -100 0 -19 9 -50 20 -68 11 -18 20 -37 20 -43 0 -6 9 -22 20 -36 11 -14 20 -33 20 -43 0 -9 9 -25 19 -35 13 -11 21 -33 23 -64 3 -43 5 -46 34 -51 22 -3 44 -19 70 -52 22 -25 68 -72 104 -104 36 -31 67 -61 70 -65 8 -11 79 -59 89 -59 4 0 16 -9 26 -20 10 -11 26 -20 35 -20 10 0 29 -9 43 -20 14 -11 34 -20 46 -20 11 0 28 -9 38 -19 13 -14 39 -21 98 -26 44 -4 95 -14 114 -21 47 -20 335 -20 382 0 19 8 63 17 99 21 36 4 79 16 96 26 17 10 41 19 54 19 12 0 33 9 47 20 14 11 34 20 44 20 11 0 38 18 60 40 23 22 49 40 58 40 25 0 253 228 281 281 7 13 16 26 19 29 13 10 61 99 61 113 0 8 9 26 20 40 11 14 20 39 20 56 0 20 7 34 20 41 17 9 20 21 20 73 0 41 6 72 18 92 16 28 17 129 22 1565 l5 1535 38 85 c60 133 81 171 98 183 9 7 19 26 23 42 4 17 23 44 43 60 19 17 64 56 99 88 35 31 69 57 76 57 7 0 19 9 26 20 7 11 23 20 37 20 13 0 28 6 32 13 10 15 109 67 129 67 7 0 32 10 55 22 40 20 53 21 247 19 219 -2 256 -9 315 -58 16 -13 39 -23 51 -23 13 0 35 -9 49 -20 14 -11 29 -20 34 -20 8 0 35 -18 102 -67 32 -25 67 -59 131 -130 86 -96 100 -115 100 -133 0 -10 7 -23 15 -30 8 -7 17 -28 21 -49 4 -20 15 -47 25 -60 13 -16 19 -40 19 -77 0 -43 4 -55 20 -64 20 -10 20 -27 22 -2239 l3 -2229 23 -31 c12 -16 22 -44 22 -60 0 -21 6 -32 20 -36 15 -5 20 -15 20 -43 0 -21 8 -44 19 -56 10 -12 25 -42 34 -67 8 -26 42 -81 76 -122 34 -41 61 -82 61 -91 0 -8 12 -23 28 -33 48 -30 87 -65 104 -94 10 -16 24 -29 31 -29 7 0 28 -11 47 -25 19 -14 40 -25 48 -25 7 0 30 -18 51 -40 33 -35 40 -39 72 -34 30 5 39 2 51 -15 8 -11 30 -24 49 -27 19 -4 46 -13 61 -20 15 -8 34 -11 42 -8 8 3 36 -2 61 -12 61 -23 398 -14 467 12 24 9 69 19 101 21 43 4 61 10 70 24 6 10 19 19 28 19 9 0 27 8 40 19 13 10 39 22 57 25 17 4 32 11 32 15 0 13 96 71 117 71 22 0 43 18 43 37 0 8 36 48 80 91 83 81 139 153 166 212 9 19 31 54 50 77 28 34 34 50 34 88 0 32 6 55 20 72 16 21 20 41 20 102 0 54 6 89 20 120 20 43 20 73 20 2210 0 2144 0 2166 20 2196 11 17 20 37 20 46 0 9 9 24 20 34 11 10 20 30 20 45 0 15 9 37 20 50 11 13 20 33 20 44 0 12 9 27 20 34 11 7 20 20 20 28 0 22 189 214 210 214 9 0 25 9 35 20 10 11 22 20 27 20 6 0 21 9 35 20 14 11 38 20 53 20 15 0 35 9 45 20 10 11 26 20 36 20 10 0 33 9 51 20 30 18 51 20 243 20 218 0 261 -8 315 -54 8 -7 37 -16 64 -20 47 -6 96 -29 140 -68 62 -54 126 -108 168 -141 47 -38 98 -114 98 -149 0 -27 18 -58 35 -58 7 0 21 -23 31 -52 9 -29 23 -65 31 -81 32 -63 33 -148 33 -2284 0 -2139 0 -2155 21 -2215 11 -33 23 -89 26 -124 6 -63 20 -83 30 -44 3 11 9 20 13 20 15 0 21 -39 11 -59 -16 -29 -13 -77 4 -91 8 -7 15 -19 15 -27 0 -19 49 -103 61 -103 5 0 15 -15 23 -34 17 -42 149 -177 194 -200 18 -9 37 -28 42 -41 5 -13 19 -29 32 -36 12 -7 44 -29 71 -51 30 -23 60 -38 76 -38 19 0 38 -11 60 -35 26 -29 39 -35 71 -35 22 0 61 -7 87 -16 33 -11 63 -14 101 -10 33 4 59 2 67 -4 22 -18 282 -16 303 3 11 9 49 17 109 22 71 5 96 11 109 26 9 10 28 19 41 19 36 0 93 33 144 84 26 25 52 46 58 46 6 0 17 11 26 23 8 13 39 39 68 57 77 49 137 119 137 160 0 12 16 30 40 46 49 32 78 91 91 180 5 36 15 78 23 93 24 48 39 95 45 151 3 30 3 672 -1 1425 -9 1626 -10 2529 -3 2944 6 290 5 306 -15 367 -12 35 -19 68 -16 73 8 12 -28 147 -61 229 -28 70 -63 227 -63 283 0 20 -6 42 -14 48 -8 7 -18 25 -21 41 -3 16 -12 34 -20 40 -7 6 -16 31 -19 55 -4 25 -11 47 -17 50 -5 4 -16 21 -24 38 -8 18 -26 50 -39 72 -13 22 -38 65 -54 95 -45 84 -136 222 -166 251 -14 15 -26 31 -26 37 0 6 -41 57 -91 114 -50 57 -99 119 -109 138 -11 19 -48 63 -82 96 -35 34 -109 107 -164 163 -56 55 -107 101 -113 101 -7 0 -34 21 -60 48 -93 91 -150 136 -203 159 -16 7 -28 17 -28 22 0 5 -15 12 -32 16 -60 12 -66 15 -71 45 -5 24 -12 30 -44 35 -51 8 -109 34 -129 56 -10 11 -27 19 -40 19 -13 0 -26 4 -29 10 -15 24 -114 80 -143 80 -17 0 -33 4 -36 8 -8 14 -131 72 -151 72 -10 0 -26 7 -35 15 -25 23 -177 65 -232 65 -27 0 -63 7 -81 16 -17 9 -61 19 -97 21 -36 3 -85 13 -110 23 -62 25 -149 26 -2715 19z m-3821 -3644 c60 -49 96 -90 102 -120 3 -16 13 -41 22 -55 25 -37 24 -200 0 -227 -10 -11 -18 -24 -18 -29 -1 -36 -103 -144 -137 -144 -10 0 -26 -9 -36 -20 -15 -18 -29 -20 -121 -20 -88 0 -107 3 -129 20 -14 11 -30 20 -36 20 -40 0 -134 94 -147 146 -4 16 -13 38 -20 49 -38 55 -9 227 49 287 9 10 17 25 17 33 0 8 18 26 39 39 22 14 42 30 46 36 4 6 68 10 172 10 161 0 166 -1 197 -25z"/></g>
</svg>
