<?xml version="1.0" encoding="utf-16"?>
<svg version="1.1" id="Layer_2_1_" xmlns="http://www.w3.org/2000/svg" x="0" y="0" viewBox="0 0 368.6 70" width="365" height="70" xml:space="preserve">
  <style>.st0{fill:#5792c9}</style>
  <path class="st0" d="M35 70C15.6 70 0 54.2 0 35 0 15.6 15.8 0 35 0c19.4 0 35 15.8 35 35S54.2 70 35 70zm-.1-48.9s2.9 3 2.9 5.4c0 2.6-2 3.3-2.8 3.3h-.2c-.6 0-2.8-.6-2.8-3.3 0-2.4 2.8-5.4 2.9-5.4zM8.5 36.9h3.2V31h5.4v-2.5h-5.5v-3.2h5.5v-2.5H8.4v14.1h.1zm29.3-15.4h3.4l-4-14.1H33l-4 14.1h3l.9-3.1H37l.8 3.1zM36.4 16h-2.9l1.4-6.1h.3l1.2 6.1zm14.7 13.9c0 4.1 1.9 7.2 6 7.2s6-3.1 6-7.2-2-7.2-6-7.2c-4.1-.2-6 2.9-6 7.2zm3.4 0c0-2.8.6-4.9 2.6-4.9 1.9 0 2.6 2.2 2.6 4.9s-.7 4.9-2.6 4.9-2.6-2.3-2.6-4.9zm-21 36.2c.2-1.4.4-3.5.4-6.1v-.4c0-3.6-.1-4.9-2.5-5.6-3.8-1.2-5.2-5.4-4.4-10.6L14.5 11.6C8 17.4 3.9 25.8 3.9 35 3.7 51.6 17 65.2 33.5 66.1zM35 45.9c-5-1.1-6.8-5.6-6.8-9.8l-11-26.7c-.8.5-1.4 1-2.1 1.6 2.4 5.7 13.1 31.2 13.2 31.4 1.9 4.6 5.4 3.1 6.3 6.9.2.9.2 1.4.2 1.4h.4s0-.4.2-1.4c.9-3.8 4.2-2.2 6.2-6.9 0 0 10.7-25.6 13.2-31.4-.6-.5-1.4-1.1-2.1-1.6L41.8 36.1c0 4-1.9 8.5-6.8 9.8zm0-8.1c-2.1-.5-4.8-2.5-5.1-5.2-.1-1-.3-1.2-.1-3.4L20.2 7.5c-.8.4-1.5.9-2.2 1.4C20.9 15.3 29.6 35 29.6 35c1.4 2.9 3.9 3 4.6 4.8.5 1 .5 2 .5 2h.4c0-.1 0-1 .5-2 .9-1.8 3.3-1.8 4.6-4.8 0 0 8.8-19.6 11.6-26.1-.7-.5-1.5-.9-2.2-1.4l-9.5 21.6c.1 2 0 2.4-.1 3.4-.2 2.7-2.9 4.7-5 5.3zm.1-3.7l.1-1.1c.6-2.8 2.6-2.4 4-5.1 0-.1 6.8-14.6 9.6-20.8C44.8 5 40 3.9 35 3.9S25.2 5 21.1 7.1c2.9 6.1 9.6 20.6 9.6 20.8 1.4 2.8 3.4 2.4 4 5.1l.1 1.1h.3zm31 .9c0-9.2-4.1-17.6-10.6-23.4L43 43.4c.9 5.1-.8 9.4-4.4 10.6-2.4.8-2.5 2-2.5 5.6v.4c0 2.6.2 4.8.4 6.1C53 65.2 66.1 51.6 66.1 35zm-52.5 9.1s.5 1 .9 1.6c.4.7.9 1.5.9 1.5l-.9.5s-.6-1-1.2-2.2c-.1.1-1.1.6-1.2.6.1.1 1.1 2.1 1.1 2.1l-.9.5s-1-2-1.1-2.1c-.1.1-2.3 1.1-2.3 1.1l-.5-1 5.2-2.6zm3.3 5.4l.8.9-4.5 3.8-.8-.9 4.5-3.8zm4.2 4l.9.6-1.1 6.2-1-.6s.3-1.2.3-1.4l-1.2-.8c-.6-.4-1.1-.9-1.2-.9-.1.1-1.2.7-1.2.7l-.9-.9 5.4-2.9zm-2.6 2.6c.1.1.5.4.9.6.4.3.8.5.9.6 0-.2.5-2.4.5-2.8-.2.4-2 1.5-2.3 1.6zm6.4-.3s1 .5 2.4 1c.9.4 1.7.6 2.5.8l-.3.9s-.8-.1-2-.5c-.1.2-1.6 4.6-1.6 4.6l-1.1-.4s1.5-4.5 1.6-4.6c-1.1-.4-1.9-.9-1.9-.9l.4-.9zM43.6 57c.4.2.6.6.9 1.1.1.3.1.4.1.6 0 .9-.6 1.5-1.6 1.8 0 0-.5.1-.6.2 0 .3.6 2.3.6 2.3l-1 .2-1.8-5.8 1.6-.5c.7-.1 1.3-.1 1.8.1zm-2.1 1c0 .1.5 1.6.5 1.8.2-.1.8-.2.8-.2.1 0 .5-.3.7-.5 0-.1.1-.2.1-.4v-.2c-.1-.2-.3-.4-.4-.5-.4-.1-.8-.1-1 0-.2-.1-.6 0-.7 0zm5.6-3.5l5.1 3.8-.9.6s-1-.8-1.1-.9c0 0-.6.4-1.1.8-.5.4-1.1.6-1.1.6 0 .1.3 1.4.3 1.4l-1 .5-.9-6.3.7-.5zm.7 4c.1-.1.5-.2 1-.5.4-.2.6-.4.8-.5-.2-.1-1.9-1.4-2.1-1.6-.1.3.3 2.4.3 2.6zm5.2-9.3l4.5 4-.7 1s-4.3-1.2-4.9-1.4c.5.5 3.1 3.2 3.1 3.2l-.7.6-4.3-4.1 1-.9s4 1.2 4.8 1.4c-.5-.5-3.2-2.9-3.2-2.9l.4-.9zm2.1-3l5.2 3-.5.9-5.2-3 .5-.9zm2.3-4.8l.9.5-.2.1c-.3.4-.4.5-.5.9-.1.1-.1.5 0 .7.1.1.1.3.4.3.4.1.7-.3 1.1-.6.5-.5 1.2-1.2 2.4-.9 1.1.4 1.5 1.4 1 2.8-.1.4-.4.7-.6 1.1v.1L61 46l.1-.1c.1-.1.5-.6.6-1 .1-.4.1-1-.5-1.2-.5-.1-.9.2-1.2.6-.5.5-1.1 1.1-2.1.9-.4-.1-.7-.4-1-.8-.2-.5-.2-1 0-1.6 0-.7.1-1 .5-1.4zM88.9 23.4c2.9 0 5.5 2.1 5.5 7.1s-2.6 7.1-5.5 7.1-5.5-2.1-5.5-7.1 2.6-7.1 5.5-7.1zm0 12.2c1.6 0 2.9-1.4 2.9-5.1s-1.2-5.1-2.9-5.1c-1.6 0-2.9 1.4-2.9 5.1s1.2 5.1 2.9 5.1zM96.4 28.9c0-.6 0-1.2-.1-1.6h2.2c0 .6.1 1.2.1 1.9.2-.8 1.1-2 2.6-2h.4v2.2c-.2 0-.4-.1-.8-.1-1 0-2.1.6-2.1 2.5v5.6h-2.5v-8.5h.2zM103.4 39c.6.4 1.8.9 3 .9 2.2 0 2.7-1.6 2.7-3.2v-1c-.4.8-1.1 1.7-2.7 1.7-1.4 0-3.5-1-3.5-5 0-2.8 1-5.2 3.6-5.2 1.5 0 2.1.9 2.6 1.8h.1c0-.5 0-1 .1-1.6h2.2c0 .5-.1 1.1-.1 1.6v7.5c0 3.1-1 5.5-4.8 5.5-1.6 0-2.9-.4-3.5-.6l.3-2.4zm3.6-3.4c1.5 0 2.1-1.1 2.1-3.4 0-2.1-.8-3.2-2-3.2s-1.8 1.2-1.8 3.2c.1 2.4.8 3.4 1.7 3.4zM114.2 27.9c.8-.4 1.6-.8 3.2-.8 3.1 0 3.9 1.5 3.9 4.1v4.5c0 .8.1 1.4.1 1.8h-2.2c-.1-.4-.1-.9-.1-1.4-.6.9-1.4 1.5-2.9 1.5-1.6 0-3-1.1-3-3 0-2.8 2.3-3.5 5.4-3.5h.5v-.4c0-1-.5-1.9-1.9-1.9-1.2 0-2.2.6-2.7 1l-.3-1.9zm4.8 4.5h-.2c-2.1 0-3.4.4-3.4 1.9 0 .9.6 1.5 1.5 1.5 1.5 0 2-1.1 2-2.9v-.5h.1zM123.6 28.9c0-.6 0-1.2-.1-1.6h2.3c0 .5.1 1 .1 1.5.4-.6 1-1.7 2.8-1.7 2.2 0 3 1.7 3 3.8v6.5h-2.5v-6.1c0-1.5-.4-2.2-1.4-2.2-1.2 0-1.8 1.1-1.8 2.4v5.9h-2.5v-8.3h.1zM134 22.9h2.5v2.4H134v-2.4zm.1 4.4h2.5v10.1h-2.5V27.3zM138.8 35c.4.1 1.4.6 2.5.6.9 0 1.6-.3 1.6-1 0-.4-.2-.8-1.1-1.2l-1-.6c-1-.6-2.1-1.2-2.1-2.9 0-1.4 1.4-2.9 3.5-2.9 1.2 0 2.4.4 2.5.4l-.1 1.9c-.6-.2-1.2-.5-2.1-.5-1 0-1.4.4-1.4 1 0 .5.4.9 1.1 1.2l1.2.8c1.2.8 1.9 1.4 1.9 2.6 0 1.9-1.6 3-3.8 3-1.2 0-2.4-.2-2.9-.5l.2-1.9zM147.5 27.9c.8-.4 1.6-.8 3.2-.8 3.1 0 3.9 1.5 3.9 4.1v4.5c0 .8.1 1.4.1 1.8h-2.2c-.1-.4-.1-.9-.1-1.4-.6.9-1.4 1.5-2.9 1.5-1.6 0-3-1.1-3-3 0-2.8 2.2-3.5 5.4-3.5h.5v-.4c0-1-.5-1.9-1.9-1.9-1.2 0-2.4.6-2.7 1l-.3-1.9zm4.9 4.5h-.2c-2.1 0-3.4.4-3.4 1.9 0 .9.6 1.5 1.5 1.5 1.5 0 2-1.1 2-2.9v-.5h.1zM157.9 25.1l2.5-.8v2.9h2V29h-2v5.2c0 1.1.4 1.4 1.1 1.4.4 0 .8-.1.9-.3v1.8c-.4.1-.9.4-1.6.4-1.9 0-2.9-.9-2.9-3v-5.6h-1.6v-1.8h1.6v-2zM164 22.9h2.5v2.4H164v-2.4zm.1 4.4h2.5v10.1h-2.5V27.3zM173.2 27.1c2.1 0 4.5 1.1 4.5 5.2 0 4.2-2.4 5.3-4.5 5.3s-4.5-1-4.5-5.3c.1-4.2 2.4-5.2 4.5-5.2zm0 8.8c1.6 0 1.9-1.9 1.9-3.5s-.4-3.5-1.9-3.5c-1.6 0-2 1.7-2 3.5 0 1.7.4 3.5 2 3.5zM179.6 28.9c0-.6 0-1.2-.1-1.6h2.2c0 .5.1 1 .1 1.5.4-.6 1-1.7 2.8-1.7 2.2 0 3 1.7 3 3.8v6.5h-2.5v-6.1c0-1.5-.4-2.2-1.4-2.2-1.2 0-1.7 1.1-1.7 2.4v5.9h-2.5v-8.3h.1zM203.4 22.6v13.1c0 .8 0 1.4.1 1.8h-2.3c0-.3-.1-.9-.1-1.6-.4.9-1.1 1.8-2.8 1.8-2.5 0-3.6-2.4-3.6-5.3 0-3.4 1.4-5.2 3.5-5.2 1.5 0 2.2.9 2.6 1.6v-6.1c.1-.1 2.6-.1 2.6-.1zM199 35.8c1.5 0 1.9-1.5 1.9-3.5s-.5-3.4-1.9-3.4-1.9 1.4-1.9 3.4c0 2.3.4 3.5 1.9 3.5zM213.1 36.9c-.5.2-1.6.6-3 .6-3.3 0-4.8-2.4-4.8-5.1 0-3 1.6-5.4 4.2-5.4 2.2 0 4.1 1.2 4.1 5.4v.6h-5.9c0 1.8.8 2.8 2.6 2.8 1.5 0 2.2-.5 2.6-.8l.2 1.9zm-1.9-5.5c0-1.8-.6-2.8-1.7-2.8-1.2 0-1.9 1.4-1.9 2.8h3.6zM215.2 35c.4.1 1.4.6 2.5.6.9 0 1.6-.3 1.6-1 0-.4-.2-.8-1.1-1.2l-1-.6c-1-.6-2.1-1.2-2.1-2.9 0-1.4 1.4-2.9 3.5-2.9 1.2 0 2.4.4 2.5.4l-.1 1.9c-.6-.2-1.2-.5-2.1-.5-1 0-1.4.4-1.4 1 0 .5.4.9 1.1 1.2l1.2.8c1.2.8 1.9 1.4 1.9 2.6 0 1.9-1.6 3-3.8 3-1.2 0-2.4-.2-2.9-.5l.2-1.9zM229 23.6h3l4.6 10.9V23.6h2.3v13.7h-3l-4.6-10.7v10.7H229V23.6zM242 27.9c.8-.4 1.6-.8 3.2-.8 3.1 0 3.9 1.5 3.9 4.1v4.5c0 .8.1 1.4.1 1.8H247c-.1-.4-.1-.9-.1-1.4-.6.9-1.4 1.5-2.9 1.5-1.6 0-3-1.1-3-3 0-2.8 2.2-3.5 5.4-3.5h.5v-.4c0-1-.5-1.9-1.9-1.9-1.2 0-2.2.6-2.7 1l-.3-1.9zm4.8 4.5h-.2c-2.1 0-3.4.4-3.4 1.9 0 .9.6 1.5 1.5 1.5 1.5 0 2-1.1 2-2.9v-.5h.1zM252.2 25.1l2.5-.8v2.9h2V29h-2v5.2c0 1.1.4 1.4 1.1 1.4.4 0 .8-.1.9-.3v1.8c-.4.1-.9.4-1.6.4-1.9 0-2.9-.9-2.9-3v-5.6h-1.6v-1.8h1.6v-2zM258.5 22.9h2.5v2.4h-2.5v-2.4zm0 4.4h2.5v10.1h-2.5V27.3zM267.6 27.1c2.1 0 4.5 1.1 4.5 5.2 0 4.2-2.4 5.3-4.5 5.3s-4.5-1-4.5-5.3c0-4.2 2.4-5.2 4.5-5.2zm0 8.8c1.6 0 2-1.9 2-3.5s-.4-3.5-2-3.5-2 1.7-2 3.5c0 1.7.4 3.5 2 3.5zM274 28.9c0-.6 0-1.2-.1-1.6h2.2c0 .5.1 1 .1 1.5.4-.6 1-1.7 2.8-1.7 2.2 0 3 1.7 3 3.8v6.5h-2.5v-6.1c0-1.5-.4-2.2-1.4-2.2-1.2 0-1.8 1.1-1.8 2.4v5.9h-2.5v-8.3h.2zM284 35c.4.1 1.4.6 2.5.6.9 0 1.6-.3 1.6-1 0-.4-.2-.8-1.1-1.2l-1-.6c-1-.6-2.1-1.2-2.1-2.9 0-1.4 1.4-2.9 3.5-2.9 1.2 0 2.4.4 2.5.4l-.1 1.9c-.6-.2-1.2-.5-2.1-.5-1 0-1.4.4-1.4 1 0 .5.4.9 1.1 1.2l1.2.8c1.2.8 1.9 1.4 1.9 2.6 0 1.9-1.6 3-3.8 3-1.2 0-2.4-.2-2.9-.5l.2-1.9zM300.2 23.6v8.9c0 2.2.8 3 2.1 3 1.5 0 2.1-.8 2.1-3v-8.9h2.5v8.9c0 3.6-2.1 5-4.6 5-2.6 0-4.8-1.4-4.8-5v-8.9h2.7zM309.5 28.9c0-.6 0-1.2-.1-1.6h2.2c0 .5.1 1 .1 1.5.4-.6 1-1.7 2.8-1.7 2.2 0 3 1.7 3 3.8v6.5H315v-6.1c0-1.5-.4-2.2-1.4-2.2-1.2 0-1.7 1.1-1.7 2.4v5.9h-2.5v-8.3h.1zM320 22.9h2.5v2.4H320v-2.4zm0 4.4h2.5v10.1H320V27.3zM332.4 36.9c-.5.2-1.6.6-3 .6-3.2 0-4.7-2.4-4.7-5.1 0-3 1.6-5.4 4.2-5.4 2.2 0 4.1 1.2 4.1 5.4v.6h-5.9c0 1.8.8 2.8 2.6 2.8 1.5 0 2.2-.5 2.6-.8v1.9zm-1.9-5.5c0-1.8-.6-2.8-1.8-2.8-1.2 0-1.9 1.4-1.9 2.8h3.7zM334.5 35c.4.1 1.4.6 2.5.6.9 0 1.6-.3 1.6-1 0-.4-.3-.8-1.1-1.2l-1-.6c-1-.6-2.1-1.2-2.1-2.9 0-1.4 1.4-2.9 3.5-2.9 1.2 0 2.4.4 2.5.4l-.1 1.9c-.6-.2-1.2-.5-2.1-.5-1 0-1.4.4-1.4 1 0 .5.4.9 1.1 1.2l1.2.8c1.2.8 1.9 1.4 1.9 2.6 0 1.9-1.6 3-3.8 3-1.2 0-2.4-.2-2.9-.5l.2-1.9zM83.6 51.2c0-.8 0-1.4-.1-1.8h2.3c0 .2.1.9.1 1.6.4-.9 1.1-1.8 2.8-1.8 2.5 0 3.6 2.4 3.6 5.2 0 3.4-1.4 5.2-3.5 5.2-1.5 0-2.3-.9-2.6-1.6v6h-2.5V51.2zm4.4 6.9c1.4 0 1.9-1.4 1.9-3.4 0-2.4-.4-3.5-1.8-3.5-1.5 0-2 1.5-2 3.5-.1 1.9.5 3.4 1.9 3.4zM98.4 49.4c2.1 0 4.5 1.1 4.5 5.2 0 4.3-2.4 5.2-4.5 5.2s-4.5-1-4.5-5.2c0-4.1 2.3-5.2 4.5-5.2zm0 8.7c1.6 0 2-1.9 2-3.5 0-1.8-.4-3.5-2-3.5s-2 1.8-2 3.5c0 1.8.4 3.5 2 3.5zM112.9 58c0 .6 0 1.2.1 1.6h-2.3c0-.5-.1-1-.1-1.5-.5.8-1.1 1.8-2.8 1.8-2.2 0-3-1.8-3-3.8v-6.5h2.5v6.1c0 1.5.4 2.2 1.5 2.2 1.2 0 1.6-1.1 1.6-2.5v-5.9h2.5V58zM115.1 51.2c0-.6 0-1.2-.1-1.6h2.2c0 .6.1 1.2.1 1.9.2-.7 1.1-2 2.6-2h.4v2.2c-.2 0-.4-.1-.8-.1-1 0-2.1.6-2.1 2.5v5.6H115v-8.5h.1zM127.4 44.9h2.5v14.9h-2.5V44.9zM135.4 44.9l-1.5 4.9H132l1-4.9h2.4zM137.9 50.1c.8-.4 1.6-.8 3.2-.8 3.1 0 3.9 1.5 3.9 4.1V58c0 .8.1 1.4.1 1.8h-2.3c-.1-.4-.1-.9-.1-1.4-.6.9-1.4 1.5-2.9 1.5-1.6 0-3-1.1-3-3 0-2.8 2.2-3.5 5.4-3.5h.5V53c0-1-.5-1.9-1.9-1.9-1.2 0-2.4.6-2.8 1l-.1-2zm4.9 4.7h-.2c-2.1 0-3.4.4-3.4 1.9 0 .9.6 1.5 1.5 1.5 1.5 0 2-1.1 2-2.9v-.5h.1zM147.5 44.9h2.5v14.9h-2.5V44.9zM152.6 45.2h2.5v2.4h-2.5v-2.4zm0 4.3h2.5v10.1h-2.5V49.5zM157.5 51.2c0-.8 0-1.2-.1-1.6h2.5c0 .5.1 1.1.1 1.6.4-.8 1.1-1.8 2.6-1.8 1.7 0 2.2 1.1 2.6 1.6.5-.7 1.2-1.6 2.8-1.6 2.2 0 2.9 1.6 2.9 4v6.2h-2.5v-6.4c0-1.2-.4-1.9-1.2-1.9-1.1 0-1.6 1-1.6 2.1v6.1H163v-6.4c0-1.2-.4-1.9-1.2-1.9-1.1 0-1.6 1-1.6 2.1v6.1h-2.5v-8.5h-.2zM180.4 59.2c-.5.3-1.6.6-3 .6-3.3 0-4.8-2.4-4.8-5.1 0-3 1.6-5.4 4.2-5.4 2.2 0 4.1 1.2 4.1 5.4v.5H175c0 1.8.8 2.8 2.6 2.8 1.5 0 2.2-.5 2.6-.8l.2 2zm-1.9-5.4c0-1.8-.6-2.8-1.7-2.8-1.2 0-1.9 1.4-1.9 2.8h3.6zM182.8 51.2c0-.6 0-1.2-.1-1.6h2.2c0 .5.1 1 .1 1.5.4-.6 1-1.8 2.8-1.8 2.2 0 3 1.8 3 3.8v6.5h-2.5v-6.1c0-1.5-.4-2.2-1.4-2.2-1.2 0-1.7 1.1-1.7 2.4v5.9h-2.5v-8.3h.1zM194 47.5l2.5-.8v2.9h2v1.8h-2v5.2c0 1.1.4 1.4 1.1 1.4.4 0 .8-.1.9-.2v1.8c-.4.1-.9.4-1.6.4-1.9 0-2.9-.9-2.9-3v-5.6h-1.6v-1.8h1.6v-2.1zM200.5 50.1c.8-.4 1.6-.8 3.2-.8 3.1 0 3.9 1.5 3.9 4.1V58c0 .8.1 1.4.1 1.8h-2.3c-.1-.4-.1-.9-.1-1.4-.6.9-1.4 1.5-2.9 1.5-1.6 0-3-1.1-3-3 0-2.8 2.2-3.5 5.4-3.5h.5V53c0-1-.5-1.9-1.9-1.9-1.2 0-2.2.6-2.7 1l-.2-2zm4.7 4.7h-.2c-2.1 0-3.4.4-3.4 1.9 0 .9.6 1.5 1.5 1.5 1.5 0 2-1.1 2-2.9v-.5h.1zM210.8 47.5l2.5-.8v2.9h2v1.8h-2v5.2c0 1.1.4 1.4 1.1 1.4.4 0 .8-.1.9-.2v1.8c-.4.1-.9.4-1.6.4-1.9 0-2.9-.9-2.9-3v-5.6h-1.6v-1.8h1.6v-2.1zM217 45.2h2.5v2.4H217v-2.4zm0 4.3h2.5v10.1H217V49.5zM226.1 49.4c2.1 0 4.5 1.1 4.5 5.2 0 4.3-2.4 5.2-4.5 5.2s-4.5-1-4.5-5.2c0-4.1 2.5-5.2 4.5-5.2zm0 8.7c1.6 0 2-1.9 2-3.5 0-1.8-.4-3.5-2-3.5s-2 1.8-2 3.5c.1 1.8.5 3.5 2 3.5zM232.6 51.2c0-.6 0-1.2-.1-1.6h2.2c0 .5.1 1 .1 1.5.4-.6 1-1.8 2.8-1.8 2.2 0 3 1.8 3 3.8v6.5h-2.5v-6.1c0-1.5-.4-2.2-1.4-2.2-1.2 0-1.8 1.1-1.8 2.4v5.9h-2.5v-8.3h.2zM255.4 59.2c-.5.3-1.6.6-3 .6-3.3 0-4.8-2.4-4.8-5.1 0-3 1.6-5.4 4.2-5.4 2.2 0 4.1 1.2 4.1 5.4v.5H250c0 1.8.8 2.8 2.6 2.8 1.5 0 2.2-.5 2.6-.8l.2 2zm-1.8-5.4c0-1.8-.6-2.8-1.8-2.8-1.2 0-1.9 1.4-1.9 2.8h3.7zM258.8 47.5l2.5-.8v2.9h2v1.8h-2v5.2c0 1.1.4 1.4 1.1 1.4.4 0 .8-.1.9-.2v1.8c-.4.1-.9.4-1.6.4-1.9 0-2.9-.9-2.9-3v-5.6h-1.6v-1.8h1.6v-2.1zM270.1 44.9h2.5v14.9h-2.5V44.9zM278.2 44.9l-1.5 4.9h-1.9l1-4.9h2.4zM280.8 50.1c.8-.4 1.6-.8 3.2-.8 3.1 0 3.9 1.5 3.9 4.1V58c0 .8.1 1.4.1 1.8h-2.3c-.1-.4-.1-.9-.1-1.4-.6.9-1.4 1.5-2.9 1.5-1.6 0-3-1.1-3-3 0-2.8 2.2-3.5 5.4-3.5h.5V53c0-1-.5-1.9-1.9-1.9-1.2 0-2.2.6-2.8 1l-.1-2zm4.7 4.7h-.2c-2.1 0-3.4.4-3.4 1.9 0 .9.6 1.5 1.5 1.5 1.5 0 2-1.1 2-2.9v-.5h.1zM290.4 61.4c.6.4 1.7.9 3 .9 2.3 0 2.6-1.6 2.6-3.2v-1c-.4.8-1.1 1.8-2.8 1.8-1.4 0-3.5-1-3.5-5 0-2.8 1-5.2 3.6-5.2 1.5 0 2.1.9 2.6 1.8h.1c0-.5 0-1 .1-1.6h2.2c0 .5-.1 1.1-.1 1.6V59c0 3.1-1 5.5-4.8 5.5-1.6 0-2.9-.4-3.5-.6l.5-2.5zm3.5-3.5c1.5 0 2.1-1.1 2.1-3.4 0-2.1-.8-3.2-2-3.2s-1.7 1.2-1.7 3.2c.1 2.4.8 3.4 1.6 3.4zM300.8 51.2c0-.6 0-1.2-.1-1.6h2.2c0 .6.1 1.2.1 1.9.2-.7 1.1-2 2.6-2h.4v2.2c-.2 0-.4-.1-.8-.1-1 0-2.1.6-2.1 2.5v5.6h-2.5v-8.5h.2zM307.9 45.2h2.5v2.4h-2.5v-2.4zm0 4.3h2.5v10.1h-2.5V49.5zM319.8 59.5c-.6.2-1.4.4-2.4.4-3.4 0-4.8-2.4-4.8-5.2s1.5-5.2 4.9-5.2c.8 0 1.6.2 2.1.4l-.1 1.9c-.4-.2-1-.5-1.8-.5-1.9 0-2.6 1.2-2.6 3.4 0 1.9.9 3.4 2.8 3.4.6 0 1.4-.2 1.8-.5l.1 1.9zM329.2 58c0 .6 0 1.2.1 1.6h-2.2c0-.5-.1-1-.1-1.5-.5.8-1.1 1.8-2.8 1.8-2.2 0-3-1.8-3-3.8v-6.5h2.5v6.1c0 1.5.4 2.2 1.5 2.2 1.2 0 1.6-1.1 1.6-2.5v-5.9h2.5V58h-.1zM331.6 44.9h2.5v14.9h-2.5V44.9zM337.5 47.5l2.5-.8v2.9h2v1.8h-2v5.2c0 1.1.4 1.4 1.1 1.4.4 0 .8-.1.9-.2v1.8c-.4.1-.9.4-1.6.4-1.9 0-2.9-.9-2.9-3v-5.6h-1.6v-1.8h1.6v-2.1zM351.6 58c0 .6 0 1.2.1 1.6h-2.2c0-.5-.1-1-.1-1.5-.5.8-1.1 1.8-2.8 1.8-2.4 0-3-1.8-3-3.8v-6.5h2.5v6.1c0 1.5.4 2.2 1.5 2.2 1.2 0 1.6-1.1 1.6-2.5v-5.9h2.5V58h-.1zM353.9 51.2c0-.6 0-1.2-.1-1.6h2.2c0 .6.1 1.2.1 1.9.2-.7 1.1-2 2.6-2h.4v2.2c-.3 0-.4-.1-.8-.1-1 0-2.1.6-2.1 2.5v5.6h-2.5v-8.5h.2zM368 59.2c-.5.3-1.6.6-3 .6-3.2 0-4.7-2.4-4.7-5.1 0-3 1.6-5.4 4.2-5.4 2.2 0 4.1 1.2 4.1 5.4v.5h-5.9c0 1.8.8 2.8 2.6 2.8 1.5 0 2.2-.5 2.6-.8v2zm-1.9-5.4c0-1.8-.6-2.8-1.8-2.8-1.2 0-1.9 1.4-1.9 2.8h3.7z" />
</svg>